<?xml version="1.0" encoding="utf-8"?>
<!-- Generator: Adobe Illustrator 19.0.0, SVG Export Plug-In . SVG Version: 6.00 Build 0)  -->
<svg version="1.1" id="Layer_1" xmlns="http://www.w3.org/2000/svg" xmlns:xlink="http://www.w3.org/1999/xlink" x="0px" y="0px"
	 viewBox="0 0 54 54" style="enable-background:new 0 0 54 54;" xml:space="preserve">
<style type="text/css">
	.st0{fill:#007BB6;}
	.st1{fill:#FFFFFF;}
</style>
<g>
	<g>
		<rect class="st0" width="54" height="54"/>
		<path class="st1" d="M8,20.2h8V46H8V20.2z M12,7.4c2.6,0,4.6,2.1,4.6,4.6c0,2.6-2.1,4.6-4.6,4.6c-2.6,0-4.6-2.1-4.6-4.6
			C7.4,9.5,9.4,7.4,12,7.4"/>
		<path class="st1" d="M21,20.2h7.7v3.5h0.1c1.1-2,3.7-4.2,7.6-4.2c8.1,0,9.6,5.3,9.6,12.3V46h-8V33.5c0-3-0.1-6.8-4.2-6.8
			c-4.2,0-4.8,3.3-4.8,6.6V46h-8V20.2z"/>
	</g>
</g>
</svg>
